<?xml version="1.0" standalone="no"?>
<!DOCTYPE svg PUBLIC "-//W3C//DTD SVG 20010904//EN"
 "http://www.w3.org/TR/2001/REC-SVG-20010904/DTD/svg10.dtd">
<svg version="1.0" xmlns="http://www.w3.org/2000/svg"
 width="72.000000pt" height="72.000000pt" viewBox="0 0 72.000000 72.000000"
 preserveAspectRatio="xMidYMid meet">
<metadata>
Created by potrace 1.11, written by Peter Selinger 2001-2013
</metadata>
<g transform="translate(0.000000,72.000000) scale(0.100000,-0.100000)"
fill="#000000" stroke="none">
<path d="M260 650 c0 -38 -2 -40 -30 -40 -23 0 -30 -4 -30 -20 0 -13 -7 -20
-20 -20 -13 0 -20 -7 -20 -20 0 -13 -7 -20 -20 -20 -18 0 -20 -7 -20 -70 l0
-70 -40 0 -40 0 0 110 c0 103 -1 110 -20 110 -19 0 -20 -7 -20 -110 0 -103 1
-110 20 -110 13 0 20 -7 20 -20 0 -17 7 -20 40 -20 l40 0 0 -70 0 -70 40 0 40
0 0 -50 0 -50 -40 0 -40 0 0 -40 0 -40 40 0 40 0 0 40 0 40 50 0 50 0 0 50 0
50 60 0 60 0 0 -50 0 -50 50 0 50 0 0 -40 0 -40 40 0 40 0 0 40 0 40 -40 0
-40 0 0 50 0 50 40 0 40 0 0 70 0 70 40 0 c33 0 40 3 40 20 0 13 7 20 20 20
19 0 20 7 20 110 0 103 -1 110 -20 110 -19 0 -20 -7 -20 -110 l0 -110 -40 0
-40 0 0 70 c0 63 -2 70 -20 70 -13 0 -20 7 -20 20 0 13 -7 20 -20 20 -13 0
-20 7 -20 20 0 16 -7 20 -30 20 -28 0 -30 2 -30 40 0 33 -3 40 -20 40 -17 0
-20 -7 -20 -40 l0 -40 -60 0 -60 0 0 40 c0 33 -3 40 -20 40 -17 0 -20 -7 -20
-40z m60 -260 l0 -80 -40 0 -40 0 0 80 0 80 40 0 40 0 0 -80z m160 0 l0 -80
-40 0 -40 0 0 80 0 80 40 0 40 0 0 -80z"/>
</g>
</svg>
